<svg version="1.1" id="Layer_1" xmlns="http://www.w3.org/2000/svg" xmlns:xlink="http://www.w3.org/1999/xlink" x="0px" y="0px"
	 width="100%" viewBox="0 0 2030 641" enable-background="new 0 0 2030 641" xml:space="preserve">
<path fill="#000000" opacity="1.000000" stroke="none" 
	d="
M1436.000000,642.000000 
	C957.333435,642.000000 479.166840,642.000000 1.000192,642.000000 
	C1.000128,428.333466 1.000128,214.666916 1.000064,1.000278 
	C677.666443,1.000186 1354.332886,1.000186 2030.999512,1.000093 
	C2030.999634,214.666382 2030.999634,428.332764 2030.999756,641.999573 
	C1832.833374,642.000000 1634.666626,642.000000 1436.000000,642.000000 
M1079.920288,368.997009 
	C1079.920288,368.997009 1079.954224,368.923737 1079.025391,368.986145 
	C1056.814087,368.986145 1034.602783,368.986145 1012.356140,368.986145 
	C1012.356140,372.636078 1012.356140,375.676849 1012.356140,379.075775 
	C1035.126709,379.075775 1057.540527,379.075775 1079.902466,379.036682 
	C1079.902466,379.036682 1079.874146,379.095215 1079.994141,379.940552 
	C1081.692871,380.625336 1083.390259,381.904114 1085.090698,381.908234 
	C1129.980103,382.017456 1174.869751,381.995087 1219.759399,381.994293 
	C1220.756958,381.994263 1221.971680,382.337402 1222.699219,381.891235 
	C1223.702148,381.276184 1224.337036,380.061218 1225.096558,379.046631 
	C1225.096558,379.046631 1225.046997,379.089661 1225.975464,379.016815 
	C1262.968262,378.961304 1299.961182,378.905792 1337.779663,378.993713 
	C1350.536987,382.002655 1363.282837,381.738678 1376.950562,378.973633 
	C1400.288818,379.010071 1423.627075,379.046539 1447.023682,379.934570 
	C1448.715698,380.617340 1450.406128,381.892365 1452.099854,381.896484 
	C1496.980103,382.005280 1541.860596,381.983002 1586.741089,381.982239 
	C1587.738403,381.982208 1588.955078,382.327087 1589.679321,381.879608 
	C1590.661499,381.272797 1591.266479,380.055481 1592.962891,379.018982 
	C1640.275269,379.038330 1687.587769,379.057709 1734.720337,379.728485 
	C1732.644775,382.491058 1730.845703,385.524689 1728.447388,387.970795 
	C1715.857910,400.811096 1699.727295,407.002136 1682.731445,410.849182 
	C1670.442749,413.630798 1657.842773,415.036987 1645.007324,417.117249 
	C1646.425415,423.110474 1647.948364,429.547272 1649.751831,437.169098 
	C1664.495728,434.723572 1678.962036,433.218445 1692.967529,429.816315 
	C1722.848022,422.557922 1747.369629,407.373230 1762.964111,379.016907 
	C1769.513550,379.016907 1776.062988,379.016907 1782.667236,379.016907 
	C1782.667236,375.380402 1782.667236,372.353119 1782.667236,368.949554 
	C1776.914673,368.949554 1771.490967,368.949554 1765.982300,368.088348 
	C1768.191772,355.059875 1767.340088,342.343597 1763.028076,330.013885 
	C1769.580078,330.013885 1776.132202,330.013885 1782.629272,330.013885 
	C1782.629272,326.315430 1782.629272,323.285492 1782.629272,320.149902 
	C1773.186035,320.149902 1764.113647,320.149902 1754.423340,319.853485 
	C1746.434814,310.936188 1736.291748,305.669861 1723.853638,302.626984 
	C1737.472534,298.095032 1747.448120,290.585571 1754.934937,278.973999 
	C1764.158203,278.973999 1773.381592,278.973999 1782.657837,278.973999 
	C1782.657837,275.378601 1782.657837,272.344482 1782.657837,268.899414 
	C1773.892090,268.899414 1765.467041,268.899414 1757.008789,268.050262 
	C1759.136841,257.676819 1758.232300,247.776230 1751.896484,238.955139 
	C1749.609741,235.771347 1746.722778,233.018616 1745.032471,230.012985 
	C1757.579956,230.012985 1770.127441,230.012985 1782.617188,230.012985 
	C1782.617188,226.308228 1782.617188,223.270493 1782.617188,220.161514 
	C1761.509766,220.161514 1740.786255,220.161514 1719.204590,220.014999 
	C1715.123779,219.677673 1711.037476,219.000061 1706.963135,219.065811 
	C1693.965210,219.275589 1680.971558,219.761520 1667.046509,220.028046 
	C1644.727173,219.999374 1622.407715,219.970718 1600.009766,219.029266 
	C1599.957764,215.374786 1600.655640,211.513092 1599.713745,208.104553 
	C1596.840820,197.709213 1593.294800,187.508026 1587.033447,179.014557 
	C1652.264038,179.014557 1717.494507,179.014557 1782.757690,179.014557 
	C1782.757690,175.364960 1782.757690,172.433655 1782.757690,168.999924 
	C1780.578857,168.999924 1778.619751,169.000534 1776.660522,168.999832 
	C1709.526123,168.975998 1642.391602,168.952042 1574.955933,168.248489 
	C1573.710449,167.128891 1572.607300,165.771301 1571.196777,164.927490 
	C1560.200073,158.349426 1548.413818,153.614838 1535.678833,152.151962 
	C1526.680054,151.118286 1517.532593,150.977142 1508.459106,151.083481 
	C1492.791748,151.267075 1479.599976,157.399597 1468.019531,168.988251 
	C1379.042114,168.978470 1290.064697,168.968704 1200.773804,168.356308 
	C1193.073364,159.627426 1182.419800,155.936462 1171.842041,153.298386 
	C1158.019775,149.851151 1143.630371,149.702789 1129.560791,152.225586 
	C1123.981934,153.225937 1118.495728,155.996323 1113.559082,158.949875 
	C1109.193481,161.561707 1105.649780,165.547058 1100.843994,168.988327 
	C1071.294434,168.988327 1041.744873,168.988327 1012.275879,168.988327 
	C1012.275879,172.703903 1012.275879,175.638443 1012.275879,179.000076 
	C1014.341431,179.000076 1016.134644,179.000076 1017.927856,179.000076 
	C1041.231934,179.000076 1064.536011,178.983032 1087.839966,179.034775 
	C1089.569946,179.038620 1091.298950,179.536575 1092.403442,180.219833 
	C1090.295410,184.136581 1087.851318,187.913193 1086.148438,191.998825 
	C1082.433105,200.913040 1080.084229,210.168076 1079.962524,219.995438 
	C1057.380859,219.995438 1034.799316,219.995438 1012.266174,219.995438 
	C1012.266174,223.682571 1012.266174,226.618088 1012.266174,230.028839 
	C1035.315308,230.028839 1058.098999,230.028839 1080.968140,230.829407 
	C1082.120728,238.640472 1086.113403,244.891632 1091.705322,250.235413 
	C1099.229858,257.425903 1108.506470,257.599976 1118.132690,257.159882 
	C1125.979858,256.801117 1141.589722,243.792786 1143.030151,230.012497 
	C1156.190063,230.008942 1169.350220,229.974899 1182.509766,230.042496 
	C1184.061279,230.050461 1185.609741,230.616379 1187.034790,231.839020 
	C1186.671509,244.291840 1184.826416,256.464478 1179.612061,268.767517 
	C1177.621216,268.844910 1175.630493,268.989471 1173.639648,268.989960 
	C1121.857178,269.002350 1070.074829,268.999756 1018.292419,268.999756 
	C1016.343323,268.999756 1014.394226,268.999756 1012.334045,268.999756 
	C1012.334045,272.585571 1012.334045,275.630127 1012.334045,279.000244 
	C1014.640869,279.000244 1016.614197,278.999268 1018.587524,279.000397 
	C1070.701904,279.030334 1122.816406,279.060486 1174.981934,279.838074 
	C1174.710083,280.766479 1174.597900,281.782806 1174.142456,282.610168 
	C1166.786255,295.974731 1157.618164,307.986725 1146.442505,319.097534 
	C1146.275513,319.412476 1146.108643,319.727448 1146.039917,319.938843 
	C1146.039917,319.938843 1145.936768,319.840149 1145.015137,319.973297 
	C1100.817139,319.973297 1056.619141,319.973297 1012.346130,319.973297 
	C1012.346130,323.614288 1012.346130,326.656311 1012.346130,330.058563 
	C1053.429810,330.058563 1094.166016,330.058563 1134.716553,330.708984 
	C1133.659546,331.444183 1132.585083,332.155426 1131.548340,332.918152 
	C1115.684326,344.589081 1099.825317,356.266754 1083.218262,368.000336 
	C1082.473389,368.060150 1081.728394,368.119965 1080.470215,368.168060 
	C1080.262451,368.432983 1080.054810,368.697906 1079.920288,368.997009 
M478.999573,252.462540 
	C479.946472,238.645523 480.893372,224.828506 481.913544,209.941986 
	C487.417053,227.161087 492.381744,243.284622 497.721069,259.283112 
	C510.814941,298.517334 527.813782,336.418030 537.871948,376.727631 
	C544.774780,376.727631 551.721863,376.727631 557.252197,376.727631 
	C578.047974,320.842010 598.585022,265.651703 618.886963,211.093109 
	C619.883972,224.570023 621.015015,238.859528 621.975952,253.160461 
	C622.763550,264.882690 623.393188,276.616150 624.014038,288.348816 
	C625.369995,313.975677 626.699524,339.603943 627.976074,365.234833 
	C628.163635,369.001648 628.002075,372.785858 628.002075,376.740204 
	C638.290344,376.740204 647.877441,376.740204 657.741699,376.740204 
	C657.828857,375.379852 658.057251,374.243683 657.947876,373.140991 
	C657.004700,363.638184 655.900208,354.150543 655.037415,344.640778 
	C653.621033,329.029541 652.312744,313.408203 651.027527,297.785461 
	C649.647339,281.008514 648.137146,264.238281 647.072571,247.440506 
	C646.108154,232.223022 645.728821,216.969269 644.965637,201.737808 
	C644.661072,195.659500 644.018677,189.598114 643.489685,183.026550 
	C631.316345,183.026550 619.194763,182.933289 607.080750,183.192047 
	C606.038147,183.214310 604.494202,185.427094 604.123779,186.864716 
	C602.409241,193.518173 601.756226,200.526184 599.398743,206.918854 
	C589.566895,233.579559 579.068909,259.994263 569.190735,286.638367 
	C562.586792,304.450836 556.615540,322.497864 551.192627,338.054749 
	C548.745667,329.411133 545.804932,318.012939 542.291626,306.794128 
	C529.392395,265.604034 511.271790,226.067307 503.375641,183.305496 
	C490.308044,183.305496 477.383942,183.305496 463.976074,183.305496 
	C461.353546,248.279205 450.442657,312.146332 443.659424,376.551056 
	C453.342621,376.551056 462.042542,376.551056 470.345581,376.551056 
	C471.246155,358.531372 472.050659,340.978302 473.029541,323.434967 
	C473.553955,314.036438 474.275024,304.645630 475.092072,295.267426 
	C476.308594,281.304138 477.688599,267.355103 478.999573,252.462540 
M923.503845,377.000977 
	C928.587463,377.000977 933.671021,377.000977 939.351562,377.000977 
	C938.735229,374.782898 938.464233,373.343018 937.942139,372.000732 
	C933.117371,359.594757 928.360596,347.160461 923.355774,334.827026 
	C919.829102,326.136383 916.137573,317.501343 912.181274,308.998932 
	C906.293518,296.345612 897.681763,286.208984 884.512817,281.122192 
	C890.767700,276.860291 897.385803,273.334412 902.796021,268.466095 
	C915.233276,257.274628 919.529053,242.772629 919.197327,226.186218 
	C918.820679,207.348419 910.130981,195.032303 892.806030,188.377472 
	C876.715271,182.196655 859.847229,182.268219 843.007507,182.264313 
	C838.206848,182.263214 833.408020,182.911865 828.605042,182.965088 
	C818.275024,183.079559 807.942932,183.000656 797.611694,183.000885 
	C795.852722,183.000931 794.093750,183.000900 792.021484,183.000900 
	C795.103882,248.083023 794.681152,312.419189 792.096313,376.636810 
	C802.130005,376.636810 811.381775,376.636810 820.903076,376.636810 
	C820.206848,349.308502 819.519958,322.344849 818.823303,294.999969 
	C823.210327,294.999969 826.687805,294.913818 830.159668,295.016388 
	C839.934814,295.305145 849.739319,295.290131 859.473511,296.100922 
	C872.547302,297.189789 880.994141,305.572998 885.996704,316.638733 
	C893.028870,332.193665 898.981689,348.259308 904.883057,364.295349 
	C909.511902,376.873779 909.166260,377.000977 923.503845,377.000977 
M299.371033,354.130676 
	C295.781555,353.132416 292.192047,352.134155 288.122559,351.002411 
	C286.624176,358.029877 285.572540,364.863586 283.617249,371.428131 
	C282.420532,375.445862 283.920319,376.206726 287.201202,377.065765 
	C304.808075,381.675903 322.736511,382.310486 340.798798,382.055878 
	C352.942932,381.884674 364.747070,380.127777 376.174469,376.030334 
	C390.893616,370.752563 402.233704,361.917816 407.128693,346.353088 
	C410.207458,336.563293 410.910065,326.677429 409.041656,316.539520 
	C406.691132,303.785522 400.369629,293.333191 390.443695,285.311218 
	C375.128357,272.933594 356.920990,265.789246 339.137299,257.888092 
	C330.419373,254.014801 321.600342,250.168732 315.058807,242.669830 
	C310.927307,237.933685 308.732544,232.279465 309.463593,226.415253 
	C311.021912,213.915146 317.281525,208.030228 329.892670,204.975662 
	C344.378845,201.466949 358.769958,203.415375 373.123810,205.584000 
	C380.214630,206.655319 387.187866,208.505020 394.891754,210.146912 
	C396.234467,201.830276 397.531830,193.794418 398.995758,184.726883 
	C390.288361,183.471893 381.750977,181.419617 373.165161,181.191635 
	C359.411285,180.826447 345.541809,180.843903 331.875183,182.224411 
	C316.755829,183.751678 303.822388,190.790039 294.532471,203.147034 
	C287.278809,212.795517 285.482574,224.051453 285.899902,235.992432 
	C286.409882,250.583832 292.184631,262.764832 303.963409,270.614563 
	C316.643890,279.065216 330.546204,285.736298 344.143738,292.740570 
	C355.865845,298.778809 368.309540,303.498077 377.774048,313.245544 
	C388.862549,324.665588 388.403107,346.033051 370.911255,353.734009 
	C360.350891,358.383270 349.187866,360.029816 338.153931,359.673065 
	C325.419678,359.261353 312.765533,356.371918 299.371033,354.130676 
M214.000336,308.500000 
	C213.417709,331.160217 212.835068,353.820435 212.248535,376.632996 
	C222.311493,376.632996 232.026794,376.632996 241.802261,376.632996 
	C241.873505,375.277069 242.011536,374.280121 241.964859,373.291901 
	C241.324722,359.737854 240.087982,346.184357 240.104568,332.632050 
	C240.158905,288.215790 240.645386,243.799866 241.036606,199.384430 
	C241.071335,195.443649 241.637604,191.508636 241.924820,187.568588 
	C242.091232,185.285889 242.088821,183.035004 238.881851,183.028152 
	C230.101807,183.009415 221.321686,183.021698 212.015686,183.021698 
	C212.015686,185.993408 211.925583,188.446609 212.030487,190.891449 
	C212.662247,205.614807 213.719559,220.331223 213.913956,235.059464 
	C214.232605,259.202484 214.000336,283.352783 214.000336,308.500000 
M709.996277,196.781830 
	C711.478271,256.700104 711.892395,316.616272 708.955383,376.602692 
	C719.345642,376.602692 729.052124,376.602692 738.817749,376.602692 
	C738.882812,375.215363 739.010437,374.218292 738.963745,373.229431 
	C738.323181,359.673767 737.086792,346.118530 737.104248,332.564575 
	C737.162598,287.143555 737.652344,241.722961 738.034607,196.302689 
	C738.057983,193.526093 738.610352,190.756302 738.863770,187.978531 
	C739.082275,185.583511 739.377563,183.040787 735.795837,183.029266 
	C727.021851,183.001022 718.247742,183.020050 708.642944,183.020050 
	C709.135681,187.730591 709.559570,191.783493 709.996277,196.781830 
M1612.084839,201.032074 
	C1612.405151,201.953842 1612.678833,202.895065 1613.053223,203.794342 
	C1615.864502,210.546692 1623.489014,213.957626 1630.070923,211.426010 
	C1637.280518,208.652893 1640.514404,201.660080 1637.972656,194.339935 
	C1635.853394,188.236710 1630.209106,185.109558 1622.948608,186.016006 
	C1616.500366,186.821045 1612.310303,192.266205 1612.084839,201.032074 
z"/>
<path fill="#2E6CA4" opacity="1.000000" stroke="none" 
	d="
M478.999298,252.931274 
	C477.688599,267.355103 476.308594,281.304138 475.092072,295.267426 
	C474.275024,304.645630 473.553955,314.036438 473.029541,323.434967 
	C472.050659,340.978302 471.246155,358.531372 470.345581,376.551056 
	C462.042542,376.551056 453.342621,376.551056 443.659424,376.551056 
	C450.442657,312.146332 461.353546,248.279205 463.976074,183.305496 
	C477.383942,183.305496 490.308044,183.305496 503.375641,183.305496 
	C511.271790,226.067307 529.392395,265.604034 542.291626,306.794128 
	C545.804932,318.012939 548.745667,329.411133 551.192627,338.054749 
	C556.615540,322.497864 562.586792,304.450836 569.190735,286.638367 
	C579.068909,259.994263 589.566895,233.579559 599.398743,206.918854 
	C601.756226,200.526184 602.409241,193.518173 604.123779,186.864716 
	C604.494202,185.427094 606.038147,183.214310 607.080750,183.192047 
	C619.194763,182.933289 631.316345,183.026550 643.489685,183.026550 
	C644.018677,189.598114 644.661072,195.659500 644.965637,201.737808 
	C645.728821,216.969269 646.108154,232.223022 647.072571,247.440506 
	C648.137146,264.238281 649.647339,281.008514 651.027527,297.785461 
	C652.312744,313.408203 653.621033,329.029541 655.037415,344.640778 
	C655.900208,354.150543 657.004700,363.638184 657.947876,373.140991 
	C658.057251,374.243683 657.828857,375.379852 657.741699,376.740204 
	C647.877441,376.740204 638.290344,376.740204 628.002075,376.740204 
	C628.002075,372.785858 628.163635,369.001648 627.976074,365.234833 
	C626.699524,339.603943 625.369995,313.975677 624.014038,288.348816 
	C623.393188,276.616150 622.763550,264.882690 621.975952,253.160461 
	C621.015015,238.859528 619.883972,224.570023 618.886963,211.093109 
	C598.585022,265.651703 578.047974,320.842010 557.252197,376.727631 
	C551.721863,376.727631 544.774780,376.727631 537.871948,376.727631 
	C527.813782,336.418030 510.814941,298.517334 497.721069,259.283112 
	C492.381744,243.284622 487.417053,227.161087 481.913544,209.941986 
	C480.893372,224.828506 479.946472,238.645523 478.999298,252.931274 
z"/>
<path fill="#2F6CA6" opacity="1.000000" stroke="none" 
	d="
M1468.944458,168.919952 
	C1479.599976,157.399597 1492.791748,151.267075 1508.459106,151.083481 
	C1517.532593,150.977142 1526.680054,151.118286 1535.678833,152.151962 
	C1548.413818,153.614838 1560.200073,158.349426 1571.196777,164.927490 
	C1572.607300,165.771301 1573.710449,167.128891 1574.916992,168.678818 
	C1578.622192,172.432953 1582.366333,175.756760 1586.110596,179.080551 
	C1593.294800,187.508026 1596.840820,197.709213 1599.713745,208.104553 
	C1600.655640,211.513092 1599.957764,215.374786 1599.907471,219.799255 
	C1600.239624,223.732101 1600.674194,226.894943 1601.061768,230.508057 
	C1600.710083,234.210297 1600.603149,237.496017 1600.055176,240.706406 
	C1599.199707,245.717957 1598.102539,250.691299 1596.991577,255.654831 
	C1596.477783,257.950409 1595.704590,260.189056 1595.022461,262.445465 
	C1594.375122,264.586884 1593.692993,266.717804 1592.697754,268.976990 
	C1589.071777,271.631500 1586.242188,274.355255 1588.133301,279.407959 
	C1587.010132,281.001770 1585.856323,282.170807 1585.044312,283.542236 
	C1582.238525,288.281311 1580.215454,293.665741 1576.677368,297.750336 
	C1569.939941,305.528351 1562.363037,312.579407 1554.770020,319.984863 
	C1550.306274,323.362549 1546.207275,326.687653 1541.936279,330.311096 
	C1540.558105,331.721069 1539.476318,333.021332 1538.124756,333.911957 
	C1531.924561,337.997589 1525.733276,342.108368 1519.376953,345.941711 
	C1512.912476,349.840149 1506.307861,353.514923 1499.674438,357.121857 
	C1492.851074,360.832062 1485.918579,364.341949 1478.662354,368.125244 
	C1476.347412,368.540192 1474.406860,368.939453 1472.460571,368.969330 
	C1463.913940,369.100525 1455.365723,369.124878 1446.820557,369.106171 
	C1446.822998,369.024353 1446.948608,368.919434 1447.138916,368.614624 
	C1449.859131,367.270630 1452.636841,366.605621 1454.874756,365.124939 
	C1462.867188,359.836823 1470.750122,354.374603 1478.535034,348.783936 
	C1487.066406,342.657135 1495.443237,336.315094 1504.229858,329.964783 
	C1509.234375,327.514282 1514.064087,325.356903 1516.107910,319.566895 
	C1527.297974,308.841858 1537.086182,297.392029 1544.472900,284.041687 
	C1545.278687,282.585571 1545.425903,280.765076 1546.242310,279.058685 
	C1550.955078,277.004150 1553.015015,273.796539 1551.979492,268.555054 
	C1553.669678,262.397858 1555.318359,256.615662 1556.935181,250.824493 
	C1558.041138,246.863388 1559.102661,242.889816 1560.336670,238.560364 
	C1560.985840,234.284683 1561.805298,230.375015 1561.861084,226.454483 
	C1561.896118,223.995712 1560.783936,221.520615 1560.098877,218.664398 
	C1559.356079,214.044617 1559.513062,209.466248 1557.883057,205.651352 
	C1554.014771,196.597061 1549.299438,187.904617 1545.043457,178.803314 
	C1543.114990,173.244156 1539.650513,169.630295 1533.653809,168.570190 
	C1528.799683,164.941879 1523.676880,163.681366 1517.758545,163.812698 
	C1509.566895,163.994461 1501.476807,163.815750 1493.771362,168.204376 
	C1489.994629,171.923538 1486.529907,175.505173 1483.073364,179.435669 
	C1481.523560,181.918457 1479.779297,183.945206 1478.468506,186.221619 
	C1477.494019,187.914246 1477.081543,189.930527 1476.418823,191.802628 
	C1478.269409,192.203781 1480.113647,192.639450 1481.974243,192.987122 
	C1482.613770,193.106598 1483.294434,193.005249 1483.956299,193.006516 
	C1497.273193,193.031998 1510.867432,206.513901 1510.728394,220.085037 
	C1508.402954,223.726456 1507.902100,227.046356 1511.019409,230.544708 
	C1510.871338,232.256607 1510.934326,233.626205 1510.564453,234.866791 
	C1508.620728,241.387329 1504.229370,246.290802 1499.073608,250.289978 
	C1495.475952,253.080536 1491.216553,256.335236 1487.001587,256.734802 
	C1478.572998,257.533783 1469.979980,258.263916 1461.876831,253.112701 
	C1453.058960,247.507126 1447.768066,240.152420 1446.222778,229.851593 
	C1448.583984,226.276337 1449.097900,223.007172 1446.022705,219.497467 
	C1445.259033,210.007431 1447.105103,201.465607 1451.101440,193.410187 
	C1453.518433,188.538101 1456.290894,183.842407 1459.237915,178.964737 
	C1462.696167,175.547974 1465.820312,172.233963 1468.944458,168.919952 
z"/>
<path fill="#2E6CA4" opacity="1.000000" stroke="none" 
	d="
M923.007935,377.000977 
	C909.166260,377.000977 909.511902,376.873779 904.883057,364.295349 
	C898.981689,348.259308 893.028870,332.193665 885.996704,316.638733 
	C880.994141,305.572998 872.547302,297.189789 859.473511,296.100922 
	C849.739319,295.290131 839.934814,295.305145 830.159668,295.016388 
	C826.687805,294.913818 823.210327,294.999969 818.823303,294.999969 
	C819.519958,322.344849 820.206848,349.308502 820.903076,376.636810 
	C811.381775,376.636810 802.130005,376.636810 792.096313,376.636810 
	C794.681152,312.419189 795.103882,248.083023 792.021484,183.000900 
	C794.093750,183.000900 795.852722,183.000931 797.611694,183.000885 
	C807.942932,183.000656 818.275024,183.079559 828.605042,182.965088 
	C833.408020,182.911865 838.206848,182.263214 843.007507,182.264313 
	C859.847229,182.268219 876.715271,182.196655 892.806030,188.377472 
	C910.130981,195.032303 918.820679,207.348419 919.197327,226.186218 
	C919.529053,242.772629 915.233276,257.274628 902.796021,268.466095 
	C897.385803,273.334412 890.767700,276.860291 884.512817,281.122192 
	C897.681763,286.208984 906.293518,296.345612 912.181274,308.998932 
	C916.137573,317.501343 919.829102,326.136383 923.355774,334.827026 
	C928.360596,347.160461 933.117371,359.594757 937.942139,372.000732 
	C938.464233,373.343018 938.735229,374.782898 939.351562,377.000977 
	C933.671021,377.000977 928.587463,377.000977 923.007935,377.000977 
M882.976868,261.525146 
	C890.150391,253.770966 893.278564,244.921585 892.148987,234.128540 
	C890.776306,221.012161 884.211304,212.477158 872.114502,207.931961 
	C854.439636,201.290863 836.353821,204.208511 818.940552,204.999084 
	C818.940552,228.458008 818.940552,251.122894 818.940552,274.000000 
	C827.206970,274.000000 834.542480,274.225769 841.859436,273.952271 
	C856.365784,273.410034 870.350159,270.857971 882.976868,261.525146 
z"/>
<path fill="#2F6CA6" opacity="1.000000" stroke="none" 
	d="
M1146.939575,318.861816 
	C1157.618164,307.986725 1166.786255,295.974731 1174.142456,282.610168 
	C1174.597900,281.782806 1174.710083,280.766479 1175.268066,279.316772 
	C1178.941040,276.031067 1181.132080,272.749329 1180.177124,268.106903 
	C1184.826416,256.464478 1186.671509,244.291840 1187.359375,231.123230 
	C1189.385132,226.750656 1190.334839,223.151535 1186.871704,219.472198 
	C1186.551270,217.305283 1186.013916,215.564072 1185.956177,213.807083 
	C1185.525513,200.716248 1179.526367,189.745682 1173.020264,178.748825 
	C1172.287964,173.276489 1168.476807,169.775543 1162.654419,168.572327 
	C1159.783813,166.825272 1157.022583,164.273270 1154.216187,164.222778 
	C1144.630249,164.050308 1134.492920,161.705582 1125.741943,169.008392 
	C1120.299316,170.547913 1118.045410,174.662079 1115.913574,179.351685 
	C1113.363159,183.505768 1110.982056,187.355774 1108.438599,191.468079 
	C1109.906860,191.813187 1110.408447,192.077866 1110.866943,192.017395 
	C1122.659302,190.462128 1130.377441,197.369934 1136.799683,205.538757 
	C1139.625000,209.132446 1140.220581,214.478973 1141.569092,219.295105 
	C1139.629395,223.210678 1138.648438,226.807709 1142.107056,230.067841 
	C1141.589722,243.792786 1125.979858,256.801117 1118.132690,257.159882 
	C1108.506470,257.599976 1099.229858,257.425903 1091.705322,250.235413 
	C1086.113403,244.891632 1082.120728,238.640472 1081.239746,230.221115 
	C1083.583374,226.250229 1084.157837,222.985336 1080.882324,219.971573 
	C1080.084229,210.168076 1082.433105,200.913040 1086.148438,191.998825 
	C1087.851318,187.913193 1090.295410,184.136581 1092.994995,179.861435 
	C1096.230835,176.996277 1098.962402,174.571426 1101.450806,171.918365 
	C1101.994141,171.339111 1101.668579,169.944916 1101.743164,168.925995 
	C1105.649780,165.547058 1109.193481,161.561707 1113.559082,158.949875 
	C1118.495728,155.996323 1123.981934,153.225937 1129.560791,152.225586 
	C1143.630371,149.702789 1158.019775,149.851151 1171.842041,153.298386 
	C1182.419800,155.936462 1193.073364,159.627426 1201.035889,168.968781 
	C1204.932983,172.764786 1208.568115,175.948318 1212.294922,179.455933 
	C1212.949463,180.960098 1213.535522,182.129700 1214.071167,183.321976 
	C1216.891479,189.600616 1220.287109,195.701111 1222.327515,202.224899 
	C1224.001465,207.576920 1224.058105,213.434784 1224.681641,219.393433 
	C1225.054199,223.162643 1225.576782,226.606842 1226.043091,230.496017 
	C1225.647339,243.116730 1222.402100,254.684189 1218.642578,266.147583 
	C1218.350708,267.037964 1218.261719,267.994934 1217.750366,269.044647 
	C1215.992065,272.466736 1214.561890,275.765137 1213.047363,279.425262 
	C1209.385498,285.938721 1206.370972,292.519043 1202.093140,298.137634 
	C1196.266602,305.790314 1189.476318,312.709137 1182.738892,320.001282 
	C1178.580811,323.331329 1174.783081,326.602814 1170.683838,330.060852 
	C1170.002197,330.771027 1169.725220,331.437653 1169.226685,331.796570 
	C1162.897339,336.352509 1156.655518,341.044800 1150.150879,345.338074 
	C1143.227051,349.907898 1136.096680,354.172791 1128.962769,358.413330 
	C1123.402100,361.718872 1117.698120,364.783295 1111.683105,368.137390 
	C1102.193970,368.194244 1093.079468,368.068573 1083.965088,367.942871 
	C1099.825317,356.266754 1115.684326,344.589081 1131.548340,332.918152 
	C1132.585083,332.155426 1133.659546,331.444183 1135.157227,330.293518 
	C1139.044189,326.532104 1142.490479,323.186157 1145.936768,319.840179 
	C1145.936768,319.840149 1146.039917,319.938843 1146.135254,319.775391 
	C1146.466919,319.361877 1146.703247,319.111877 1146.939575,318.861816 
z"/>
<path fill="#2E6CA4" opacity="1.000000" stroke="none" 
	d="
M299.723816,354.344543 
	C312.765533,356.371918 325.419678,359.261353 338.153931,359.673065 
	C349.187866,360.029816 360.350891,358.383270 370.911255,353.734009 
	C388.403107,346.033051 388.862549,324.665588 377.774048,313.245544 
	C368.309540,303.498077 355.865845,298.778809 344.143738,292.740570 
	C330.546204,285.736298 316.643890,279.065216 303.963409,270.614563 
	C292.184631,262.764832 286.409882,250.583832 285.899902,235.992432 
	C285.482574,224.051453 287.278809,212.795517 294.532471,203.147034 
	C303.822388,190.790039 316.755829,183.751678 331.875183,182.224411 
	C345.541809,180.843903 359.411285,180.826447 373.165161,181.191635 
	C381.750977,181.419617 390.288361,183.471893 398.995758,184.726883 
	C397.531830,193.794418 396.234467,201.830276 394.891754,210.146912 
	C387.187866,208.505020 380.214630,206.655319 373.123810,205.584000 
	C358.769958,203.415375 344.378845,201.466949 329.892670,204.975662 
	C317.281525,208.030228 311.021912,213.915146 309.463593,226.415253 
	C308.732544,232.279465 310.927307,237.933685 315.058807,242.669830 
	C321.600342,250.168732 330.419373,254.014801 339.137299,257.888092 
	C356.920990,265.789246 375.128357,272.933594 390.443695,285.311218 
	C400.369629,293.333191 406.691132,303.785522 409.041656,316.539520 
	C410.910065,326.677429 410.207458,336.563293 407.128693,346.353088 
	C402.233704,361.917816 390.893616,370.752563 376.174469,376.030334 
	C364.747070,380.127777 352.942932,381.884674 340.798798,382.055878 
	C322.736511,382.310486 304.808075,381.675903 287.201202,377.065765 
	C283.920319,376.206726 282.420532,375.445862 283.617249,371.428131 
	C285.572540,364.863586 286.624176,358.029877 288.122559,351.002411 
	C292.192047,352.134155 295.781555,353.132416 299.723816,354.344543 
z"/>
<path fill="#2F6CA6" opacity="1.000000" stroke="none" 
	d="
M1376.019653,378.860931 
	C1363.282837,381.738678 1350.536987,382.002655 1337.073242,378.737549 
	C1329.877319,375.301208 1323.387817,372.121063 1316.816406,368.621643 
	C1305.437012,357.868439 1298.843750,344.754272 1294.938477,329.689728 
	C1294.262573,326.156830 1293.612793,323.027893 1292.979248,319.464783 
	C1292.665894,315.426788 1291.929077,311.805206 1292.084717,308.222412 
	C1292.506836,298.506134 1293.307495,288.806274 1294.108398,278.745911 
	C1294.842041,275.304871 1295.425415,272.217773 1296.319336,268.920471 
	C1300.387451,260.936676 1303.595947,252.827148 1308.079956,245.497894 
	C1311.541016,239.840637 1316.602295,235.162445 1321.298340,229.953125 
	C1328.755005,226.619263 1335.865601,223.381226 1343.407959,220.076813 
	C1354.907349,220.054443 1365.975098,220.098434 1377.349365,220.315308 
	C1384.474243,223.681992 1391.292480,226.875824 1398.227539,230.380829 
	C1410.568115,240.663345 1417.408447,253.831238 1421.101074,269.296509 
	C1421.789917,272.822205 1422.412842,275.958618 1423.051025,279.512268 
	C1423.375610,281.860260 1423.981689,283.796661 1423.944946,285.720856 
	C1423.727417,297.142395 1423.360840,308.561157 1422.839722,320.286316 
	C1421.768433,323.758972 1420.901855,326.926178 1419.991455,330.466187 
	C1417.854614,335.826752 1416.448608,341.268463 1413.518799,345.703339 
	C1408.194580,353.762177 1401.964600,361.222412 1395.769775,369.032898 
	C1388.957764,372.375854 1382.488770,375.618408 1376.019653,378.860931 
M1322.722046,269.574432 
	C1321.826416,272.747467 1320.930908,275.920532 1320.003540,279.952789 
	C1319.966431,280.940063 1320.001953,281.936279 1319.881348,282.913239 
	C1318.352905,295.305695 1318.156372,307.653473 1321.038452,320.709778 
	C1322.060303,323.830963 1323.082153,326.952148 1324.026001,330.824249 
	C1325.634399,334.390717 1327.021973,338.077301 1328.887817,341.503540 
	C1339.008789,360.089325 1361.240356,365.791107 1378.114502,353.914154 
	C1386.353149,348.115295 1390.798706,339.454102 1394.284546,329.403137 
	C1394.845825,326.242065 1395.407104,323.080994 1396.351807,319.193298 
	C1396.823608,315.968872 1397.861816,312.708954 1397.662598,309.526489 
	C1397.021729,299.290497 1395.924316,289.083038 1395.010986,278.069946 
	C1393.976562,275.024872 1392.942139,271.979828 1391.988647,268.183136 
	C1390.370850,264.611664 1388.956909,260.930389 1387.101196,257.487152 
	C1377.606812,239.868866 1355.746948,234.752502 1339.851318,244.597641 
	C1330.754883,250.231567 1326.635986,259.405426 1322.722046,269.574432 
z"/>
<path fill="#2F6CA5" opacity="1.000000" stroke="none" 
	d="
M1667.976318,220.140778 
	C1680.971558,219.761520 1693.965210,219.275589 1706.963135,219.065811 
	C1711.037476,219.000061 1715.123779,219.677673 1719.958618,220.249054 
	C1728.511719,223.678452 1736.310669,226.873810 1744.109741,230.069168 
	C1746.722778,233.018616 1749.609741,235.771347 1751.896484,238.955139 
	C1758.232300,247.776230 1759.136841,257.676819 1756.873657,268.816681 
	C1755.826294,272.675629 1754.913940,275.768158 1754.001709,278.860718 
	C1747.448120,290.585571 1737.472534,298.095032 1723.853638,302.626984 
	C1736.291748,305.669861 1746.434814,310.936188 1754.876953,320.299347 
	C1757.588867,323.854950 1759.846924,326.964691 1762.105103,330.074432 
	C1767.340088,342.343597 1768.191772,355.059875 1765.807861,368.803162 
	C1764.433838,372.709625 1763.234375,375.901245 1762.034790,379.092834 
	C1747.369629,407.373230 1722.848022,422.557922 1692.967529,429.816315 
	C1678.962036,433.218445 1664.495728,434.723572 1649.751831,437.169098 
	C1647.948364,429.547272 1646.425415,423.110474 1645.007324,417.117249 
	C1657.842773,415.036987 1670.442749,413.630798 1682.731445,410.849182 
	C1699.727295,407.002136 1715.857910,400.811096 1728.447388,387.970795 
	C1730.845703,385.524689 1732.644775,382.491058 1735.053589,379.144897 
	C1736.579224,375.343018 1737.771606,372.124725 1739.012817,368.490814 
	C1739.372070,366.990662 1739.893921,365.919006 1739.961060,364.819611 
	C1740.825684,350.648651 1737.812378,338.115082 1724.673950,329.627838 
	C1712.799316,322.736786 1700.151367,320.141602 1686.664795,319.588562 
	C1680.028931,319.236877 1673.626831,319.236877 1666.463257,319.236877 
	C1667.434570,313.563660 1668.658813,309.066711 1668.856567,304.525085 
	C1669.061279,299.825104 1671.166138,299.107361 1675.371826,298.855591 
	C1684.210693,298.326477 1693.190308,297.767395 1701.761475,295.738922 
	C1712.905884,293.101471 1723.999268,289.523621 1731.177002,278.854248 
	C1732.624756,275.388794 1733.794678,272.146973 1734.979492,268.490540 
	C1734.647095,258.628967 1730.981201,250.597031 1721.959229,247.317322 
	C1714.073730,244.450851 1705.462036,242.539917 1697.102173,242.258102 
	C1683.639282,241.804291 1670.119507,243.038544 1655.928101,243.586502 
	C1656.218628,239.807098 1656.591797,234.952423 1656.987183,229.690079 
	C1656.821045,224.567230 1659.040771,221.943207 1663.747437,221.308105 
	C1665.183350,221.114349 1666.568115,220.540543 1667.976318,220.140778 
z"/>
<path fill="#2E6CA4" opacity="1.000000" stroke="none" 
	d="
M214.000366,308.000000 
	C214.000336,283.352783 214.232605,259.202484 213.913956,235.059464 
	C213.719559,220.331223 212.662247,205.614807 212.030487,190.891449 
	C211.925583,188.446609 212.015686,185.993408 212.015686,183.021698 
	C221.321686,183.021698 230.101807,183.009415 238.881851,183.028152 
	C242.088821,183.035004 242.091232,185.285889 241.924820,187.568588 
	C241.637604,191.508636 241.071335,195.443649 241.036606,199.384430 
	C240.645386,243.799866 240.158905,288.215790 240.104568,332.632050 
	C240.087982,346.184357 241.324722,359.737854 241.964859,373.291901 
	C242.011536,374.280121 241.873505,375.277069 241.802261,376.632996 
	C232.026794,376.632996 222.311493,376.632996 212.248535,376.632996 
	C212.835068,353.820435 213.417709,331.160217 214.000366,308.000000 
z"/>
<path fill="#2E6CA4" opacity="1.000000" stroke="none" 
	d="
M709.989868,196.309113 
	C709.559570,191.783493 709.135681,187.730591 708.642944,183.020050 
	C718.247742,183.020050 727.021851,183.001022 735.795837,183.029266 
	C739.377563,183.040787 739.082275,185.583511 738.863770,187.978531 
	C738.610352,190.756302 738.057983,193.526093 738.034607,196.302689 
	C737.652344,241.722961 737.162598,287.143555 737.104248,332.564575 
	C737.086792,346.118530 738.323181,359.673767 738.963745,373.229431 
	C739.010437,374.218292 738.882812,375.215363 738.817749,376.602692 
	C729.052124,376.602692 719.345642,376.602692 708.955383,376.602692 
	C711.892395,316.616272 711.478271,256.700104 709.989868,196.309113 
z"/>
<path fill="#4674C5" opacity="1.000000" stroke="none" 
	d="
M1212.203247,179.131836 
	C1208.568115,175.948318 1204.932983,172.764786 1201.192627,169.270096 
	C1290.064697,168.968704 1379.042114,168.978470 1468.481934,168.954102 
	C1465.820312,172.233963 1462.696167,175.547974 1458.775391,178.937027 
	C1385.043335,179.008133 1312.108032,178.999619 1239.172729,179.006149 
	C1230.182861,179.006943 1221.193115,179.087967 1212.203247,179.131836 
z"/>
<path fill="#4674C5" opacity="1.000000" stroke="none" 
	d="
M1586.572021,179.047577 
	C1582.366333,175.756760 1578.622192,172.432953 1575.067627,169.018616 
	C1642.391602,168.952042 1709.526123,168.975998 1776.660522,168.999832 
	C1778.619751,169.000534 1780.578857,168.999924 1782.757690,168.999924 
	C1782.757690,172.433655 1782.757690,175.364960 1782.757690,179.014557 
	C1717.494507,179.014557 1652.264038,179.014557 1586.572021,179.047577 
z"/>
<path fill="#336EAA" opacity="1.000000" stroke="none" 
	d="
M1446.817993,369.187988 
	C1455.365723,369.124878 1463.913940,369.100525 1472.460571,368.969330 
	C1474.406860,368.939453 1476.347412,368.540192 1479.127563,368.154114 
	C1483.948730,368.002960 1487.932861,368.007874 1491.917114,368.014465 
	C1524.950317,368.069092 1557.983521,368.124054 1591.199463,368.317841 
	C1591.630493,368.637848 1591.888184,368.804260 1592.125488,368.972351 
	C1592.095825,368.988770 1592.068604,368.926575 1592.044312,369.387665 
	C1592.024414,372.932495 1592.028931,376.016235 1592.033325,379.099976 
	C1591.266479,380.055481 1590.661499,381.272797 1589.679321,381.879608 
	C1588.955078,382.327087 1587.738403,381.982208 1586.741089,381.982239 
	C1541.860596,381.983002 1496.980103,382.005280 1452.099854,381.896484 
	C1450.406128,381.892365 1448.715698,380.617340 1446.983276,379.153748 
	C1445.842651,375.325653 1444.098755,372.287170 1446.817993,369.187988 
z"/>
<path fill="#4674C5" opacity="1.000000" stroke="none" 
	d="
M1179.894531,268.437195 
	C1181.132080,272.749329 1178.941040,276.031067 1175.242432,278.943054 
	C1122.816406,279.060486 1070.701904,279.030334 1018.587524,279.000397 
	C1016.614197,278.999268 1014.640869,279.000244 1012.334045,279.000244 
	C1012.334045,275.630127 1012.334045,272.585571 1012.334045,268.999756 
	C1014.394226,268.999756 1016.343323,268.999756 1018.292419,268.999756 
	C1070.074829,268.999756 1121.857178,269.002350 1173.639648,268.989960 
	C1175.630493,268.989471 1177.621216,268.844910 1179.894531,268.437195 
z"/>
<path fill="#336EAA" opacity="1.000000" stroke="none" 
	d="
M1083.591675,367.971619 
	C1093.079468,368.068573 1102.193970,368.194244 1112.146118,368.160278 
	C1116.801392,368.005249 1120.619019,368.008362 1124.436523,368.014648 
	C1157.629883,368.069122 1190.823364,368.124207 1224.198730,368.318420 
	C1224.628540,368.638916 1224.886353,368.804382 1225.125122,368.971130 
	C1225.095947,368.988129 1225.068115,368.926575 1225.043945,369.387207 
	C1225.028931,372.928436 1225.037964,376.009033 1225.046997,379.089661 
	C1225.046997,379.089661 1225.096558,379.046631 1224.636597,379.056641 
	C1176.075806,379.076141 1127.974976,379.085693 1079.874146,379.095215 
	C1079.874146,379.095215 1079.902466,379.036682 1079.926025,378.663025 
	C1079.951172,375.167511 1079.952759,372.045624 1079.954224,368.923737 
	C1079.954224,368.923737 1079.920288,368.997009 1080.081543,368.860474 
	C1080.499268,368.555664 1080.746216,368.374268 1080.983521,368.179779 
	C1081.728394,368.119965 1082.473389,368.060150 1083.591675,367.971619 
z"/>
<path fill="#4674C5" opacity="1.000000" stroke="none" 
	d="
M1592.498047,379.059479 
	C1592.028931,376.016235 1592.024414,372.932495 1592.507690,369.417419 
	C1641.651611,368.959564 1690.307861,368.933014 1738.964111,368.906433 
	C1737.771606,372.124725 1736.579224,375.343018 1735.143555,378.819214 
	C1687.587769,379.057709 1640.275269,379.038330 1592.498047,379.059479 
z"/>
<path fill="#4674C5" opacity="1.000000" stroke="none" 
	d="
M1145.475952,319.906738 
	C1142.490479,323.186157 1139.044189,326.532104 1135.250000,329.968323 
	C1094.166016,330.058563 1053.429810,330.058563 1012.346130,330.058563 
	C1012.346130,326.656311 1012.346130,323.614288 1012.346130,319.973297 
	C1056.619141,319.973297 1100.817139,319.973297 1145.475952,319.906738 
z"/>
<path fill="#4674C5" opacity="1.000000" stroke="none" 
	d="
M1225.511230,379.053223 
	C1225.037964,376.009033 1225.028931,372.928436 1225.507324,369.417053 
	C1256.296021,368.971161 1286.597290,368.956055 1316.898438,368.940918 
	C1323.387817,372.121063 1329.877319,375.301208 1336.660400,378.665833 
	C1299.961182,378.905792 1262.968262,378.961304 1225.511230,379.053223 
z"/>
<path fill="#4674C5" opacity="1.000000" stroke="none" 
	d="
M1101.293579,168.957169 
	C1101.668579,169.944916 1101.994141,171.339111 1101.450806,171.918365 
	C1098.962402,174.571426 1096.230835,176.996277 1093.307373,179.653931 
	C1091.298950,179.536575 1089.569946,179.038620 1087.839966,179.034775 
	C1064.536011,178.983032 1041.231934,179.000076 1017.927856,179.000076 
	C1016.134644,179.000076 1014.341431,179.000076 1012.275879,179.000076 
	C1012.275879,175.638443 1012.275879,172.703903 1012.275879,168.988327 
	C1041.744873,168.988327 1071.294434,168.988327 1101.293579,168.957169 
z"/>
<path fill="#4674C5" opacity="1.000000" stroke="none" 
	d="
M1080.422363,219.983505 
	C1084.157837,222.985336 1083.583374,226.250229 1081.196899,229.820831 
	C1058.098999,230.028839 1035.315308,230.028839 1012.266174,230.028839 
	C1012.266174,226.618088 1012.266174,223.682571 1012.266174,219.995438 
	C1034.799316,219.995438 1057.380859,219.995438 1080.422363,219.983505 
z"/>
<path fill="#4674C5" opacity="1.000000" stroke="none" 
	d="
M1079.489746,368.954956 
	C1079.952759,372.045624 1079.951172,375.167511 1079.951904,378.682587 
	C1057.540527,379.075775 1035.126709,379.075775 1012.356140,379.075775 
	C1012.356140,375.676849 1012.356140,372.636078 1012.356140,368.986145 
	C1034.602783,368.986145 1056.814087,368.986145 1079.489746,368.954956 
z"/>
<path fill="#4674C5" opacity="1.000000" stroke="none" 
	d="
M1446.820557,369.106201 
	C1444.098755,372.287170 1445.842651,375.325653 1446.954102,378.727936 
	C1423.627075,379.046539 1400.288818,379.010071 1376.485107,378.917297 
	C1382.488770,375.618408 1388.957764,372.375854 1396.230957,369.060272 
	C1413.673096,368.964630 1430.310791,368.942017 1446.948608,368.919434 
	C1446.948608,368.919434 1446.822998,369.024353 1446.820557,369.106201 
z"/>
<path fill="#4674C5" opacity="1.000000" stroke="none" 
	d="
M1667.511475,220.084412 
	C1666.568115,220.540543 1665.183350,221.114349 1663.747437,221.308105 
	C1659.040771,221.943207 1656.821045,224.567230 1656.522583,229.650558 
	C1637.726807,230.031738 1619.417725,230.044754 1601.108765,230.057770 
	C1600.674194,226.894943 1600.239624,223.732101 1599.946777,220.255661 
	C1622.407715,219.970718 1644.727173,219.999374 1667.511475,220.084412 
z"/>
<path fill="#2E6CA4" opacity="1.000000" stroke="none" 
	d="
M1612.052734,200.624664 
	C1612.310303,192.266205 1616.500366,186.821045 1622.948608,186.016006 
	C1630.209106,185.109558 1635.853394,188.236710 1637.972656,194.339935 
	C1640.514404,201.660080 1637.280518,208.652893 1630.070923,211.426010 
	C1623.489014,213.957626 1615.864502,210.546692 1613.053223,203.794342 
	C1612.678833,202.895065 1612.405151,201.953842 1612.052734,200.624664 
z"/>
<path fill="#4674C5" opacity="1.000000" stroke="none" 
	d="
M1744.571045,230.041077 
	C1736.310669,226.873810 1728.511719,223.678452 1720.387695,220.322296 
	C1740.786255,220.161514 1761.509766,220.161514 1782.617188,220.161514 
	C1782.617188,223.270493 1782.617188,226.308228 1782.617188,230.012985 
	C1770.127441,230.012985 1757.579956,230.012985 1744.571045,230.041077 
z"/>
<path fill="#4574C4" opacity="1.000000" stroke="none" 
	d="
M1142.568604,230.040161 
	C1138.648438,226.807709 1139.629395,223.210678 1141.836426,219.645752 
	C1157.201172,219.784149 1172.039062,219.837357 1186.876953,219.890564 
	C1190.334839,223.151535 1189.385132,226.750656 1187.421753,230.665543 
	C1185.609741,230.616379 1184.061279,230.050461 1182.509766,230.042496 
	C1169.350220,229.974899 1156.190063,230.008942 1142.568604,230.040161 
z"/>
<path fill="#2F6CA6" opacity="1.000000" stroke="none" 
	d="
M1079.934082,379.517883 
	C1127.974976,379.085693 1176.075806,379.076141 1224.653076,379.084900 
	C1224.337036,380.061218 1223.702148,381.276184 1222.699219,381.891235 
	C1221.971680,382.337402 1220.756958,381.994263 1219.759399,381.994293 
	C1174.869751,381.995087 1129.980103,382.017456 1085.090698,381.908234 
	C1083.390259,381.904114 1081.692871,380.625336 1079.934082,379.517883 
z"/>
<path fill="#4674C5" opacity="1.000000" stroke="none" 
	d="
M1754.468262,278.917358 
	C1754.913940,275.768158 1755.826294,272.675629 1756.890381,269.241272 
	C1765.467041,268.899414 1773.892090,268.899414 1782.657837,268.899414 
	C1782.657837,272.344482 1782.657837,275.378601 1782.657837,278.973999 
	C1773.381592,278.973999 1764.158203,278.973999 1754.468262,278.917358 
z"/>
<path fill="#4674C5" opacity="1.000000" stroke="none" 
	d="
M1762.566650,330.044159 
	C1759.846924,326.964691 1757.588867,323.854950 1755.186035,320.447571 
	C1764.113647,320.149902 1773.186035,320.149902 1782.629272,320.149902 
	C1782.629272,323.285492 1782.629272,326.315430 1782.629272,330.013885 
	C1776.132202,330.013885 1769.580078,330.013885 1762.566650,330.044159 
z"/>
<path fill="#4674C5" opacity="1.000000" stroke="none" 
	d="
M1762.499512,379.054871 
	C1763.234375,375.901245 1764.433838,372.709625 1765.850220,369.233765 
	C1771.490967,368.949554 1776.914673,368.949554 1782.667236,368.949554 
	C1782.667236,372.353119 1782.667236,375.380402 1782.667236,379.016907 
	C1776.062988,379.016907 1769.513550,379.016907 1762.499512,379.054871 
z"/>
<path fill="#2F6CA6" opacity="1.000000" stroke="none" 
	d="
M1080.726807,368.173920 
	C1080.746216,368.374268 1080.499268,368.555664 1080.044922,368.843384 
	C1080.054810,368.697906 1080.262451,368.432983 1080.726807,368.173920 
z"/>
<path fill="#4674C5" opacity="1.000000" stroke="none" 
	d="
M1146.691040,318.979675 
	C1146.703247,319.111877 1146.466919,319.361877 1146.086060,319.827148 
	C1146.108643,319.727448 1146.275513,319.412476 1146.691040,318.979675 
z"/>
<path fill="#000000" opacity="1.000000" stroke="none" 
	d="
M1212.294922,179.455902 
	C1221.193115,179.087967 1230.182861,179.006943 1239.172729,179.006149 
	C1312.108032,178.999619 1385.043335,179.008133 1458.441162,179.039780 
	C1456.290894,183.842407 1453.518433,188.538101 1451.101440,193.410187 
	C1447.105103,201.465607 1445.259033,210.007431 1445.556152,219.516052 
	C1422.362671,220.042633 1399.702637,220.092529 1377.042725,220.142426 
	C1365.975098,220.098434 1354.907349,220.054443 1342.943115,220.018661 
	C1304.849976,220.017838 1267.653564,220.022293 1230.457275,219.960175 
	C1228.581421,219.957047 1226.706787,219.378876 1224.831543,219.068436 
	C1224.058105,213.434784 1224.001465,207.576920 1222.327515,202.224899 
	C1220.287109,195.701111 1216.891479,189.600616 1214.071167,183.321976 
	C1213.535522,182.129700 1212.949463,180.960098 1212.294922,179.455902 
M1259.319702,213.234955 
	C1261.603516,211.250687 1264.396851,209.618912 1266.064819,207.208481 
	C1269.490112,202.258438 1268.363403,195.639435 1264.024048,191.526352 
	C1259.607910,187.340439 1252.132690,186.736053 1246.693237,190.124985 
	C1242.122681,192.972626 1240.034546,199.363815 1241.897827,204.802399 
	C1244.476318,212.328445 1248.682129,214.569519 1259.319702,213.234955 
z"/>
<path fill="#000000" opacity="1.000000" stroke="none" 
	d="
M1739.012817,368.490845 
	C1690.307861,368.933014 1641.651611,368.959564 1592.531982,368.956360 
	C1592.068604,368.926575 1592.095825,368.988770 1592.007080,368.743530 
	C1591.617920,368.391846 1591.317261,368.285400 1591.016724,368.178925 
	C1557.983521,368.124054 1524.950317,368.069092 1491.917114,368.014465 
	C1487.932861,368.007874 1483.948730,368.002960 1479.499268,367.968384 
	C1485.918579,364.341949 1492.851074,360.832062 1499.674438,357.121857 
	C1506.307861,353.514923 1512.912476,349.840149 1519.376953,345.941711 
	C1525.733276,342.108368 1531.924561,337.997589 1538.124756,333.911957 
	C1539.476318,333.021332 1540.558105,331.721069 1542.393799,330.303345 
	C1589.835815,329.998260 1636.648315,330.011597 1683.460815,329.992828 
	C1697.285034,329.987274 1711.109131,329.891083 1724.933350,329.836426 
	C1737.812378,338.115082 1740.825684,350.648651 1739.961060,364.819611 
	C1739.893921,365.919006 1739.372070,366.990662 1739.012817,368.490845 
z"/>
<path fill="#000000" opacity="1.000000" stroke="none" 
	d="
M1730.899170,279.077911 
	C1723.999268,289.523621 1712.905884,293.101471 1701.761475,295.738922 
	C1693.190308,297.767395 1684.210693,298.326477 1675.371826,298.855591 
	C1671.166138,299.107361 1669.061279,299.825104 1668.856567,304.525085 
	C1668.658813,309.066711 1667.434570,313.563660 1666.463257,319.236877 
	C1673.626831,319.236877 1680.028931,319.236877 1686.202881,319.612732 
	C1642.361328,319.969788 1598.747925,319.951019 1555.134644,319.932251 
	C1562.363037,312.579407 1569.939941,305.528351 1576.677368,297.750336 
	C1580.215454,293.665741 1582.238525,288.281311 1585.044312,283.542236 
	C1585.856323,282.170807 1587.010132,281.001770 1588.582031,279.376343 
	C1636.404297,279.034485 1683.651733,279.056183 1730.899170,279.077911 
z"/>
<path fill="#000000" opacity="1.000000" stroke="none" 
	d="
M1423.044434,319.980835 
	C1423.360840,308.561157 1423.727417,297.142395 1423.944946,285.720856 
	C1423.981689,283.796661 1423.375610,281.860260 1423.515625,279.473785 
	C1464.602661,279.049896 1505.240479,279.081726 1545.878418,279.113556 
	C1545.425903,280.765076 1545.278687,282.585571 1544.472900,284.041687 
	C1537.086182,297.392029 1527.297974,308.841858 1515.643799,319.623993 
	C1484.376831,319.980927 1453.710693,319.980865 1423.044434,319.980835 
z"/>
<path fill="#000000" opacity="1.000000" stroke="none" 
	d="
M1421.035278,268.907227 
	C1417.408447,253.831238 1410.568115,240.663345 1398.688843,230.352615 
	C1414.660278,230.030869 1430.286987,230.048523 1445.913818,230.066162 
	C1447.768066,240.152420 1453.058960,247.507126 1461.876831,253.112701 
	C1469.979980,258.263916 1478.572998,257.533783 1487.001587,256.734802 
	C1491.216553,256.335236 1495.475952,253.080536 1499.073608,250.289978 
	C1504.229370,246.290802 1508.620728,241.387329 1510.564453,234.866791 
	C1510.934326,233.626205 1510.871338,232.256607 1511.487549,230.486725 
	C1527.852417,230.026947 1543.737915,230.026947 1560.184082,230.026947 
	C1560.184082,233.352615 1560.184082,236.137222 1560.184082,238.921814 
	C1559.102661,242.889816 1558.041138,246.863388 1556.935181,250.824493 
	C1555.318359,256.615662 1553.669678,262.397858 1551.515381,268.586060 
	C1507.676025,268.961243 1464.355591,268.934235 1421.035278,268.907227 
z"/>
<path fill="#000000" opacity="1.000000" stroke="none" 
	d="
M1601.061768,230.508072 
	C1619.417725,230.044754 1637.726807,230.031738 1656.500366,230.058228 
	C1656.591797,234.952423 1656.218628,239.807098 1655.928101,243.586502 
	C1670.119507,243.038544 1683.639282,241.804291 1697.102173,242.258102 
	C1705.462036,242.539917 1714.073730,244.450851 1721.959229,247.317322 
	C1730.981201,250.597031 1734.647095,258.628967 1734.514893,268.529144 
	C1723.903687,268.988159 1713.771729,269.008881 1703.639771,268.997284 
	C1666.768555,268.955139 1629.897339,268.902191 1593.026123,268.853333 
	C1593.692993,266.717804 1594.375122,264.586884 1595.022461,262.445465 
	C1595.704590,260.189056 1596.477783,257.950409 1596.991577,255.654831 
	C1598.102539,250.691299 1599.199707,245.717957 1600.055176,240.706406 
	C1600.603149,237.496017 1600.710083,234.210297 1601.061768,230.508072 
M1620.177979,257.642456 
	C1623.838135,257.881409 1627.733887,259.030731 1631.106079,258.157684 
	C1636.972534,256.638977 1640.786743,249.887192 1639.955933,244.485809 
	C1639.002930,238.289093 1634.423828,233.580002 1628.799072,233.012161 
	C1621.707275,232.296204 1616.092407,235.377884 1614.055908,241.103516 
	C1611.729004,247.645813 1613.663330,253.287704 1620.177979,257.642456 
z"/>
<path fill="#000000" opacity="1.000000" stroke="none" 
	d="
M1447.138916,368.614624 
	C1430.310791,368.942017 1413.673096,368.964630 1396.573975,368.959839 
	C1401.964600,361.222412 1408.194580,353.762177 1413.518799,345.703339 
	C1416.448608,341.268463 1417.854614,335.826752 1420.456055,330.428162 
	C1448.605469,330.033875 1476.246460,330.050385 1503.887451,330.066895 
	C1495.443237,336.315094 1487.066406,342.657135 1478.535034,348.783936 
	C1470.750122,354.374603 1462.867188,359.836823 1454.874756,365.124939 
	C1452.636841,366.605621 1449.859131,367.270630 1447.138916,368.614624 
z"/>
<path fill="#000000" opacity="1.000000" stroke="none" 
	d="
M1511.030884,219.857178 
	C1510.867432,206.513901 1497.273193,193.031998 1483.956299,193.006516 
	C1483.294434,193.005249 1482.613770,193.106598 1481.974243,192.987122 
	C1480.113647,192.639450 1478.269409,192.203781 1476.418823,191.802628 
	C1477.081543,189.930527 1477.494019,187.914246 1478.468506,186.221619 
	C1479.779297,183.945206 1481.523560,181.918457 1483.534668,179.397018 
	C1504.300537,179.028336 1524.613525,179.047134 1544.926392,179.065948 
	C1549.299438,187.904617 1554.014771,196.597061 1557.883057,205.651352 
	C1559.513062,209.466248 1559.356079,214.044617 1559.822510,219.007324 
	C1543.432861,219.778198 1527.231812,219.817688 1511.030884,219.857178 
z"/>
<path fill="#4674C5" opacity="1.000000" stroke="none" 
	d="
M1554.770020,319.984833 
	C1598.747925,319.951019 1642.361328,319.969788 1686.436523,319.964417 
	C1700.151367,320.141602 1712.799316,322.736786 1724.673950,329.627838 
	C1711.109131,329.891083 1697.285034,329.987274 1683.460815,329.992828 
	C1636.648315,330.011597 1589.835815,329.998260 1542.565796,330.005005 
	C1546.207275,326.687653 1550.306274,323.362549 1554.770020,319.984833 
z"/>
<path fill="#4674C5" opacity="1.000000" stroke="none" 
	d="
M1592.697754,268.976990 
	C1629.897339,268.902191 1666.768555,268.955139 1703.639771,268.997284 
	C1713.771729,269.008881 1723.903687,268.988159 1734.500122,268.943726 
	C1733.794678,272.146973 1732.624756,275.388794 1731.177002,278.854248 
	C1683.651733,279.056183 1636.404297,279.034485 1588.708130,279.044373 
	C1586.242188,274.355255 1589.071777,271.631500 1592.697754,268.976990 
z"/>
<path fill="#4674C5" opacity="1.000000" stroke="none" 
	d="
M1421.101074,269.296509 
	C1464.355591,268.934235 1507.676025,268.961243 1551.460449,268.957275 
	C1553.015015,273.796539 1550.955078,277.004150 1546.242310,279.058685 
	C1505.240479,279.081726 1464.602661,279.049896 1423.500244,279.056549 
	C1422.412842,275.958618 1421.789917,272.822205 1421.101074,269.296509 
z"/>
<path fill="#4674C5" opacity="1.000000" stroke="none" 
	d="
M1504.229858,329.964783 
	C1476.246460,330.050385 1448.605469,330.033875 1420.499878,330.055359 
	C1420.901855,326.926178 1421.768433,323.758972 1422.839844,320.286316 
	C1453.710693,319.980865 1484.376831,319.980927 1515.507080,319.923828 
	C1514.064087,325.356903 1509.234375,327.514282 1504.229858,329.964783 
z"/>
<path fill="#4674C5" opacity="1.000000" stroke="none" 
	d="
M1446.222778,229.851593 
	C1430.286987,230.048523 1414.660278,230.030869 1398.572144,230.041443 
	C1391.292480,226.875824 1384.474243,223.681992 1377.349365,220.315292 
	C1399.702637,220.092529 1422.362671,220.042633 1445.489136,219.974152 
	C1449.097900,223.007172 1448.583984,226.276337 1446.222778,229.851593 
z"/>
<path fill="#4574C5" opacity="1.000000" stroke="none" 
	d="
M1545.043457,178.803314 
	C1524.613525,179.047134 1504.300537,179.028336 1483.526367,179.048187 
	C1486.529907,175.505173 1489.994629,171.923538 1493.987427,168.572296 
	C1507.591309,168.839645 1520.667358,168.876602 1533.743286,168.913559 
	C1539.650513,169.630295 1543.114990,173.244156 1545.043457,178.803314 
z"/>
<path fill="#4572C5" opacity="1.000000" stroke="none" 
	d="
M1510.728394,220.085037 
	C1527.231812,219.817688 1543.432861,219.778198 1559.910156,219.395782 
	C1560.783936,221.520615 1561.896118,223.995712 1561.861084,226.454483 
	C1561.805298,230.375015 1560.985840,234.284683 1560.336670,238.560379 
	C1560.184082,236.137222 1560.184082,233.352615 1560.184082,230.026947 
	C1543.737915,230.026947 1527.852417,230.026947 1511.498901,230.084930 
	C1507.902100,227.046356 1508.402954,223.726456 1510.728394,220.085037 
z"/>
<path fill="#000000" opacity="1.000000" stroke="none" 
	d="
M1533.653809,168.570190 
	C1520.667358,168.876602 1507.591309,168.839645 1494.299316,168.434753 
	C1501.476807,163.815750 1509.566895,163.994461 1517.758545,163.812698 
	C1523.676880,163.681366 1528.799683,164.941879 1533.653809,168.570190 
z"/>
<path fill="#000000" opacity="1.000000" stroke="none" 
	d="
M882.714600,261.775085 
	C870.350159,270.857971 856.365784,273.410034 841.859436,273.952271 
	C834.542480,274.225769 827.206970,274.000000 818.940552,274.000000 
	C818.940552,251.122894 818.940552,228.458008 818.940552,204.999084 
	C836.353821,204.208511 854.439636,201.290863 872.114502,207.931961 
	C884.211304,212.477158 890.776306,221.012161 892.148987,234.128540 
	C893.278564,244.921585 890.150391,253.770966 882.714600,261.775085 
z"/>
<path fill="#000000" opacity="1.000000" stroke="none" 
	d="
M1316.816406,368.621643 
	C1286.597290,368.956055 1256.296021,368.971161 1225.531494,368.956421 
	C1225.068115,368.926575 1225.095947,368.988129 1225.006836,368.742615 
	C1224.617432,368.391113 1224.317017,368.285095 1224.016724,368.179077 
	C1190.823364,368.124207 1157.629883,368.069122 1124.436523,368.014648 
	C1120.619019,368.008362 1116.801392,368.005249 1112.520874,367.977753 
	C1117.698120,364.783295 1123.402100,361.718872 1128.962769,358.413330 
	C1136.096680,354.172791 1143.227051,349.907898 1150.150879,345.338074 
	C1156.655518,341.044800 1162.897339,336.352509 1169.226685,331.796570 
	C1169.725220,331.437653 1170.002197,330.771027 1171.153076,330.110748 
	C1212.937500,330.013947 1253.951050,330.053802 1294.964600,330.093658 
	C1298.843750,344.754272 1305.437012,357.868439 1316.816406,368.621643 
z"/>
<path fill="#000000" opacity="1.000000" stroke="none" 
	d="
M1293.958008,279.099884 
	C1293.307495,288.806274 1292.506836,298.506134 1292.084717,308.222412 
	C1291.929077,311.805206 1292.665894,315.426788 1292.514771,319.505829 
	C1255.722412,319.968201 1219.410889,319.955444 1183.099365,319.942688 
	C1189.476318,312.709137 1196.266602,305.790314 1202.093140,298.137634 
	C1206.370972,292.519043 1209.385498,285.938721 1213.506592,279.398865 
	C1240.686035,279.040436 1267.321899,279.070160 1293.958008,279.099884 
z"/>
<path fill="#000000" opacity="1.000000" stroke="none" 
	d="
M1320.952148,230.048981 
	C1316.602295,235.162445 1311.541016,239.840637 1308.079956,245.497894 
	C1303.595947,252.827148 1300.387451,260.936676 1295.851074,268.867249 
	C1269.407715,268.989838 1243.743042,268.955383 1218.078491,268.920959 
	C1218.261719,267.994934 1218.350708,267.037964 1218.642578,266.147583 
	C1222.402100,254.684189 1225.647339,243.116730 1226.504639,230.474854 
	C1258.332397,230.022141 1289.642212,230.035568 1320.952148,230.048981 
M1244.085205,259.289917 
	C1249.082397,265.688171 1258.520020,265.295746 1263.481689,260.946259 
	C1268.646362,256.418671 1269.333130,247.983398 1265.151978,242.691437 
	C1260.926392,237.343155 1251.716675,236.336777 1245.957153,240.593994 
	C1240.507446,244.622177 1239.602051,252.431030 1244.085205,259.289917 
z"/>
<path fill="#000000" opacity="1.000000" stroke="none" 
	d="
M1186.871704,219.472183 
	C1172.039062,219.837357 1157.201172,219.784149 1142.095947,219.380280 
	C1140.220581,214.478973 1139.625000,209.132446 1136.799683,205.538757 
	C1130.377441,197.369934 1122.659302,190.462128 1110.866943,192.017395 
	C1110.408447,192.077866 1109.906860,191.813187 1108.438599,191.468079 
	C1110.982056,187.355774 1113.363159,183.505768 1116.373657,179.330826 
	C1135.626831,179.007065 1154.250854,179.008240 1172.874756,179.009415 
	C1179.526367,189.745682 1185.525513,200.716248 1185.956177,213.807083 
	C1186.013916,215.564072 1186.551270,217.305283 1186.871704,219.472183 
z"/>
<path fill="#4674C5" opacity="1.000000" stroke="none" 
	d="
M1182.738892,320.001282 
	C1219.410889,319.955444 1255.722412,319.968201 1292.498413,319.939941 
	C1293.612793,323.027893 1294.262573,326.156830 1294.938477,329.689728 
	C1253.951050,330.053802 1212.937500,330.013947 1171.454712,329.924194 
	C1174.783081,326.602814 1178.580811,323.331329 1182.738892,320.001282 
z"/>
<path fill="#4674C5" opacity="1.000000" stroke="none" 
	d="
M1321.298340,229.953156 
	C1289.642212,230.035568 1258.332397,230.022141 1226.560791,230.029877 
	C1225.576782,226.606842 1225.054199,223.162643 1224.681641,219.393433 
	C1226.706787,219.378876 1228.581421,219.957047 1230.457275,219.960175 
	C1267.653564,220.022293 1304.849976,220.017838 1342.511230,220.085022 
	C1335.865601,223.381226 1328.755005,226.619263 1321.298340,229.953156 
z"/>
<path fill="#4674C5" opacity="1.000000" stroke="none" 
	d="
M1217.750366,269.044647 
	C1243.743042,268.955383 1269.407715,268.989838 1295.540527,269.077454 
	C1295.425415,272.217773 1294.842041,275.304871 1294.108398,278.745911 
	C1267.321899,279.070160 1240.686035,279.040436 1213.590820,279.037109 
	C1214.561890,275.765137 1215.992065,272.466736 1217.750366,269.044647 
z"/>
<path fill="#4574C5" opacity="1.000000" stroke="none" 
	d="
M1173.020264,178.748825 
	C1154.250854,179.008240 1135.626831,179.007065 1116.542847,179.026733 
	C1118.045410,174.662079 1120.299316,170.547913 1126.203613,169.028442 
	C1138.932373,168.964523 1150.837646,168.939240 1162.743042,168.913956 
	C1168.476807,169.775543 1172.287964,173.276489 1173.020264,178.748825 
z"/>
<path fill="#000000" opacity="1.000000" stroke="none" 
	d="
M1162.654419,168.572327 
	C1150.837646,168.939240 1138.932373,168.964523 1126.565308,168.969757 
	C1134.492920,161.705582 1144.630249,164.050308 1154.216187,164.222778 
	C1157.022583,164.273270 1159.783813,166.825272 1162.654419,168.572327 
z"/>
<path fill="#000000" opacity="1.000000" stroke="none" 
	d="
M1321.035400,319.907104 
	C1318.156372,307.653473 1318.352905,295.305695 1319.881348,282.913239 
	C1320.001953,281.936279 1319.966431,280.940063 1320.484009,279.485199 
	C1345.643921,278.966614 1370.323486,278.915588 1395.002930,278.864563 
	C1395.924316,289.083038 1397.021729,299.290497 1397.662598,309.526489 
	C1397.861816,312.708954 1396.823608,315.968872 1395.694824,319.589111 
	C1370.370483,319.958984 1345.702881,319.933044 1321.035400,319.907104 
z"/>
<path fill="#000000" opacity="1.000000" stroke="none" 
	d="
M1393.962769,330.103485 
	C1390.798706,339.454102 1386.353149,348.115295 1378.114502,353.914154 
	C1361.240356,365.791107 1339.008789,360.089325 1328.887817,341.503540 
	C1327.021973,338.077301 1325.634399,334.390717 1324.526733,330.418762 
	C1348.005859,330.043335 1370.984375,330.073395 1393.962769,330.103485 
z"/>
<path fill="#000000" opacity="1.000000" stroke="none" 
	d="
M1323.038696,268.894592 
	C1326.635986,259.405426 1330.754883,250.231567 1339.851318,244.597641 
	C1355.746948,234.752502 1377.606812,239.868866 1387.101196,257.487152 
	C1388.956909,260.930389 1390.370850,264.611664 1391.485596,268.585419 
	C1368.334473,268.956665 1345.686646,268.925629 1323.038696,268.894592 
z"/>
<path fill="#4674C5" opacity="1.000000" stroke="none" 
	d="
M1394.123657,329.753296 
	C1370.984375,330.073395 1348.005859,330.043335 1324.565674,330.043274 
	C1323.082153,326.952148 1322.060303,323.830963 1321.036865,320.308441 
	C1345.702881,319.933044 1370.370483,319.958984 1395.503174,319.952393 
	C1395.407104,323.080994 1394.845825,326.242065 1394.123657,329.753296 
z"/>
<path fill="#4674C5" opacity="1.000000" stroke="none" 
	d="
M1322.880371,269.234497 
	C1345.686646,268.925629 1368.334473,268.956665 1391.445068,268.961243 
	C1392.942139,271.979828 1393.976562,275.024872 1395.006958,278.467255 
	C1370.323486,278.915588 1345.643921,278.966614 1320.499878,279.055603 
	C1320.930908,275.920532 1321.826416,272.747467 1322.880371,269.234497 
z"/>
<path fill="#2F6CA6" opacity="1.000000" stroke="none" 
	d="
M1591.199463,368.317841 
	C1591.317261,368.285400 1591.617920,368.391846 1592.036865,368.727112 
	C1591.888184,368.804260 1591.630493,368.637848 1591.199463,368.317841 
z"/>
<path fill="#2F6CA6" opacity="1.000000" stroke="none" 
	d="
M1224.198730,368.318390 
	C1224.317017,368.285095 1224.617432,368.391113 1225.036011,368.725586 
	C1224.886353,368.804382 1224.628540,368.638916 1224.198730,368.318390 
z"/>
<path fill="#2E6CA4" opacity="1.000000" stroke="none" 
	d="
M1258.991455,213.485657 
	C1248.682129,214.569519 1244.476318,212.328445 1241.897827,204.802399 
	C1240.034546,199.363815 1242.122681,192.972626 1246.693237,190.124985 
	C1252.132690,186.736053 1259.607910,187.340439 1264.024048,191.526352 
	C1268.363403,195.639435 1269.490112,202.258438 1266.064819,207.208481 
	C1264.396851,209.618912 1261.603516,211.250687 1258.991455,213.485657 
z"/>
<path fill="#2E6CA4" opacity="1.000000" stroke="none" 
	d="
M1619.868652,257.398956 
	C1613.663330,253.287704 1611.729004,247.645813 1614.055908,241.103516 
	C1616.092407,235.377884 1621.707275,232.296204 1628.799072,233.012161 
	C1634.423828,233.580002 1639.002930,238.289093 1639.955933,244.485809 
	C1640.786743,249.887192 1636.972534,256.638977 1631.106079,258.157684 
	C1627.733887,259.030731 1623.838135,257.881409 1619.868652,257.398956 
z"/>
<path fill="#2E6CA4" opacity="1.000000" stroke="none" 
	d="
M1243.980225,258.919739 
	C1239.602051,252.431030 1240.507446,244.622177 1245.957153,240.593994 
	C1251.716675,236.336777 1260.926392,237.343155 1265.151978,242.691437 
	C1269.333130,247.983398 1268.646362,256.418671 1263.481689,260.946259 
	C1258.520020,265.295746 1249.082397,265.688171 1243.980225,258.919739 
z"/>
</svg>